<?xml version="1.0" standalone="no"?>
<!DOCTYPE svg PUBLIC "-//W3C//DTD SVG 20010904//EN"
 "http://www.w3.org/TR/2001/REC-SVG-20010904/DTD/svg10.dtd">
<svg version="1.0" xmlns="http://www.w3.org/2000/svg"
 width="640.000000pt" height="640.000000pt" viewBox="0 0 640.000000 640.000000"
 preserveAspectRatio="xMidYMid meet">
<metadata>
Created by potrace 1.14, written by Peter Selinger 2001-2017
</metadata>
<g transform="translate(0.000000,640.000000) scale(0.100000,-0.100000)"
fill="#000000" stroke="none">
<path d="M0 4523 l0 -1878 28 47 c26 45 88 118 112 133 7 4 24 -4 41 -21 37
-36 37 -21 -2 36 -29 42 -30 50 -27 125 2 67 9 92 36 148 38 76 115 160 169
182 46 19 132 19 159 0 13 -8 24 -30 28 -54 7 -43 60 -116 149 -205 67 -66 80
-100 81 -221 1 -111 -5 -128 -70 -189 -85 -80 -200 -73 -299 18 -45 42 -175
129 -182 123 -2 -3 22 -24 53 -48 32 -24 79 -65 104 -90 25 -25 60 -53 77 -62
68 -36 106 -144 84 -244 -14 -63 -27 -88 -67 -128 -22 -23 -32 -25 -72 -20
-64 7 -80 13 -128 46 -23 16 -71 38 -107 50 -65 21 -115 58 -149 109 l-17 25
0 -24 c-1 -16 14 -39 45 -68 25 -25 44 -46 42 -47 -1 -2 -13 -9 -25 -15 -42
-21 -63 -81 -63 -174 0 -83 0 -84 37 -122 36 -37 202 -124 266 -139 16 -4 27
-13 27 -24 0 -26 36 -116 87 -219 60 -122 165 -230 296 -307 169 -99 281 -130
482 -130 168 0 299 27 469 97 67 28 90 25 189 -24 53 -27 68 -43 49 -51 -25
-10 -92 -219 -92 -286 0 -37 -4 -45 -32 -61 -103 -60 -149 -124 -150 -206 -1
-43 -2 -44 -27 -38 -54 14 -393 7 -466 -9 -111 -25 -217 -55 -268 -77 -58 -25
-219 -30 -255 -7 -5 3 -24 8 -43 11 -40 7 -72 27 -114 69 -16 17 -43 38 -59
46 -16 8 -31 21 -34 30 -3 8 -16 25 -28 36 -17 16 -25 19 -34 10 -8 -8 -14 -7
-21 4 -8 11 -12 12 -16 3 -6 -16 -29 -17 -39 -1 -4 7 -3 8 4 4 7 -4 12 -5 12
-1 0 6 -41 23 -73 29 -12 2 -35 9 -50 15 -16 6 -39 8 -52 5 -13 -3 -33 -1 -44
6 l-21 11 0 -376 0 -375 3200 0 3200 0 0 469 0 469 -27 5 c-15 3 -36 1 -45 -4
-10 -5 -29 -7 -44 -3 -14 4 -45 1 -67 -5 -23 -7 -53 -16 -67 -19 -14 -4 -25
-14 -25 -22 0 -8 -11 -24 -25 -35 -14 -10 -28 -25 -32 -31 -5 -7 -23 -10 -45
-8 -21 2 -76 6 -122 9 -50 3 -94 11 -107 20 -13 8 -32 15 -44 15 -11 0 -20 5
-20 10 0 6 -7 10 -15 10 -8 0 -15 7 -15 15 0 11 -12 15 -42 16 l-43 0 36 14
c20 7 49 24 64 37 24 21 41 24 193 34 178 12 221 24 269 76 21 22 73 127 73
146 0 5 10 16 23 24 41 28 88 83 109 127 17 38 20 60 16 150 -4 115 -18 157
-67 198 -23 20 -23 28 2 24 13 -2 3 23 -17 41 -19 18 -18 18 6 18 14 0 31 7
38 15 7 9 19 14 27 11 11 -5 13 375 13 2284 l0 2290 -3200 0 -3200 0 0 -1877z
m3653 -114 c61 -16 98 -20 147 -16 97 8 104 -2 43 -60 -119 -114 -190 -320
-162 -467 16 -85 32 -82 24 5 -13 143 35 265 158 403 28 30 28 30 24 6 -2 -14
-17 -65 -32 -115 -23 -77 -26 -102 -21 -170 9 -141 54 -233 150 -313 45 -37
142 -90 194 -106 36 -12 27 18 -12 36 -53 26 -98 129 -100 228 -1 95 48 262
102 342 30 47 42 41 32 -14 -9 -49 11 -149 44 -218 37 -79 169 -191 194 -165
4 4 1 10 -7 13 -32 11 -89 75 -115 129 -33 67 -44 156 -26 223 6 25 14 57 17
72 4 20 13 28 34 32 16 3 43 9 59 12 31 6 38 -4 18 -24 -10 -10 2 -11 57 -6
39 3 81 2 95 -4 l25 -9 -23 -7 c-34 -11 -26 -23 21 -29 62 -9 145 -46 127 -57
-15 -9 1 -19 65 -38 17 -5 30 -14 30 -21 0 -17 26 -31 58 -31 38 0 67 -17 67
-39 0 -12 14 -24 46 -36 53 -20 122 -86 176 -169 34 -53 37 -61 23 -75 -13
-13 -12 -18 8 -45 41 -56 51 -84 38 -100 -12 -14 -6 -61 11 -82 14 -18 23
-119 10 -110 -19 11 -26 -17 -25 -99 2 -100 -9 -162 -32 -179 -13 -10 -18 -32
-22 -97 -3 -52 -10 -93 -20 -108 -17 -26 -37 -104 -47 -186 -9 -61 -22 -110
-43 -151 -16 -30 -13 -64 5 -64 5 0 29 24 52 54 50 63 114 113 182 144 60 28
77 27 119 -1 85 -56 91 -241 14 -404 -72 -152 -165 -265 -263 -320 -124 -69
-203 -73 -263 -13 -27 26 -29 27 -35 8 -19 -60 -154 -156 -294 -208 -47 -17
-107 -40 -135 -51 -77 -31 -285 -45 -460 -30 -232 19 -413 48 -456 74 -21 12
-118 82 -216 156 -125 94 -215 172 -303 262 -151 154 -182 188 -205 222 -18
28 -19 21 21 142 22 65 42 192 50 310 l7 110 -21 -18 c-12 -11 -18 -26 -15
-38 3 -10 0 -25 -6 -33 -8 -10 -9 -16 -1 -21 21 -13 6 -128 -29 -218 -6 -16
-11 -43 -11 -61 0 -44 -19 -98 -34 -93 -55 18 -84 271 -50 448 22 119 55 178
108 199 37 14 68 -17 61 -60 -3 -16 -7 -43 -10 -60 -2 -17 0 -30 5 -30 14 0
26 122 35 380 10 277 16 342 39 410 12 36 21 71 19 77 -2 6 8 50 22 96 31 103
99 202 202 293 80 71 108 87 182 103 31 7 69 24 91 41 21 17 45 30 53 30 8 0
20 7 27 15 15 18 5 19 103 -6z m-1916 -288 c33 -27 43 -63 43 -148 l0 -76 -47
6 c-67 9 -151 -27 -175 -74 -30 -56 -24 -100 18 -142 21 -20 45 -39 55 -42 11
-4 19 -10 19 -13 0 -18 -64 -27 -173 -24 -115 3 -118 4 -127 28 -15 37 -12
134 5 190 36 121 103 225 182 281 41 29 54 33 112 33 49 -1 72 -5 88 -19z
m125 -268 c7 -6 24 -13 38 -16 40 -10 85 -51 74 -68 -4 -8 -9 -18 -10 -24 -1
-5 -7 -22 -13 -38 -9 -22 -14 -26 -28 -18 -31 16 -88 36 -96 33 -4 -1 -21 5
-38 13 -16 9 -33 14 -37 12 -4 -3 -18 -1 -31 4 -17 7 -22 15 -18 29 3 11 1 20
-4 20 -5 0 -9 -6 -9 -14 0 -22 -13 -27 -80 -30 -66 -3 -69 0 -41 53 11 21 31
39 52 47 40 15 221 13 241 -3z m147 -147 c-6 -25 -16 -46 -21 -46 -6 0 -7 10
-4 23 12 37 14 51 15 72 1 13 4 16 12 8 7 -7 7 -24 -2 -57z m-959 23 c3 6 37
8 75 5 76 -6 104 -6 150 -2 29 3 30 1 42 -57 7 -33 9 -62 5 -66 -4 -3 -42 -13
-85 -22 l-79 -16 -49 49 c-28 28 -63 57 -79 65 -17 9 -30 20 -30 25 0 6 -9 10
-19 10 -11 0 -22 4 -25 9 -3 5 15 5 41 0 29 -6 49 -5 53 0z m742 -21 c81 -22
198 -83 206 -107 3 -10 -5 -12 -39 -6 -24 4 -51 13 -59 20 -51 43 -160 71
-208 53 -26 -10 -35 -8 -76 16 -71 42 -59 59 38 51 32 -3 94 -15 138 -27z
m268 -13 c0 -28 -20 -75 -32 -75 -11 0 -10 13 4 60 14 45 28 52 28 15z m-1107
-5 c51 -16 78 -32 121 -73 31 -29 56 -57 56 -62 0 -6 -20 -23 -45 -38 -46 -29
-58 -60 -34 -84 6 -6 22 -44 36 -85 22 -67 24 -78 13 -133 -14 -74 -58 -140
-124 -189 -73 -54 -150 -50 -237 14 -56 40 -160 153 -176 190 -28 64 -15 238
24 314 72 142 206 195 366 146z m870 -60 c43 -19 82 -52 44 -37 -9 3 -17 0
-19 -7 -2 -10 -10 -10 -37 1 -24 10 -31 17 -22 22 15 9 -7 21 -39 21 -10 0
-22 5 -25 10 -11 17 50 11 98 -10z m-17 -61 c34 -11 70 -29 79 -39 23 -25 25
-26 -75 15 -47 19 -94 35 -105 35 -11 0 -27 5 -35 11 -22 15 62 2 136 -22z
m-169 -4 c182 -30 269 -71 416 -199 170 -148 252 -284 323 -531 42 -147 28
-496 -30 -724 -31 -120 -27 -148 4 -40 12 41 28 91 35 113 l12 39 17 -29 c8
-16 39 -76 67 -134 29 -58 65 -124 81 -147 15 -23 28 -44 28 -47 0 -7 49 -88
117 -193 29 -46 53 -91 53 -100 0 -24 -114 -160 -153 -183 -18 -10 -39 -25
-47 -32 -46 -43 -138 -95 -183 -103 l-35 -7 5 64 c4 50 2 66 -10 77 -26 21
-36 4 -30 -49 9 -76 -8 -106 -71 -126 -119 -38 -283 -26 -390 28 -70 35 -71
37 -19 71 87 54 293 245 293 271 0 4 13 25 30 46 34 43 133 236 128 250 -2 5
-25 -34 -53 -87 -55 -107 -164 -254 -215 -293 -18 -14 -70 -56 -114 -94 -180
-155 -500 -254 -781 -241 -229 10 -478 142 -617 326 -37 49 -82 141 -108 219
-12 36 -27 71 -32 78 -8 9 -8 16 0 24 14 14 42 3 42 -16 0 -9 16 -40 35 -70
19 -30 35 -58 35 -62 0 -21 81 -110 147 -161 98 -75 188 -125 278 -154 56 -18
92 -23 180 -23 97 1 121 4 205 33 130 44 324 152 407 226 116 104 186 193 248
314 41 83 14 58 -40 -36 -50 -86 -197 -253 -224 -253 -7 0 23 38 66 84 75 80
183 243 183 275 0 9 -19 -15 -42 -54 -67 -113 -157 -220 -224 -266 -12 -8 -50
-36 -85 -63 -81 -61 -262 -147 -359 -171 -94 -23 -261 -24 -348 -1 -184 47
-383 220 -427 370 l-16 54 33 52 c30 48 33 61 33 130 0 52 -5 83 -14 94 -13
15 -10 22 27 59 79 81 105 199 67 306 -8 24 -15 45 -15 47 0 2 17 6 37 10 123
23 207 108 227 230 6 35 -4 131 -20 184 -3 13 7 15 66 12 84 -5 118 12 187 96
91 112 109 195 68 329 -6 17 -1 25 26 38 118 61 332 84 440 46 84 -29 177 -90
260 -172 31 -30 106 -145 131 -200 26 -55 78 -263 78 -309 0 -13 3 -20 7 -16
18 18 -12 191 -53 298 -58 153 -196 311 -334 383 -19 10 -60 26 -90 36 -30 10
-45 18 -34 18 23 1 83 -18 142 -46 81 -38 194 -137 260 -230 47 -67 110 -221
129 -314 18 -93 23 -344 10 -489 -11 -121 9 -68 23 62 15 132 5 347 -21 453
-64 260 -208 451 -414 545 -139 64 -136 63 -268 58 -116 -5 -194 -23 -260 -59
-36 -20 -67 -29 -67 -19 0 15 84 60 162 85 89 29 252 33 395 10z m960 -302
c-8 -7 -37 9 -31 19 3 5 12 4 20 -3 8 -6 13 -14 11 -16z m-71 -160 c34 -45 0
-156 -58 -191 -22 -13 -29 -13 -42 -3 -20 17 -21 45 -2 60 21 17 66 107 66
131 0 25 18 26 36 3z m119 -33 c43 -18 68 -34 66 -42 -12 -38 -23 -113 -28
-190 -3 -49 -9 -88 -13 -88 -17 0 -53 99 -60 165 -4 39 -14 84 -23 102 -14 27
-24 83 -14 83 1 0 34 -13 72 -30z m-65 -146 c0 -46 -6 -63 -31 -100 -30 -44
-31 -45 -51 -27 -43 38 -43 52 -1 97 22 22 45 54 51 69 18 41 32 24 32 -39z
m-125 -131 c27 -29 31 -43 15 -43 -5 0 -10 4 -10 9 0 5 -9 13 -21 16 -12 4
-18 13 -15 20 3 8 0 16 -7 19 -9 3 -9 5 0 5 7 1 24 -11 38 -26z m-8 -55 c-3
-8 -6 -5 -6 6 -1 11 2 17 5 13 3 -3 4 -12 1 -19z m26 -237 c74 -52 112 -94
173 -192 25 -39 46 -60 73 -72 46 -21 82 -72 112 -159 30 -87 23 -257 -15
-367 -14 -41 -29 -78 -34 -83 -24 -24 -268 387 -347 585 -22 57 -26 78 -21
120 4 29 7 85 8 125 0 39 3 72 5 72 3 0 23 -13 46 -29z m493 -322 c114 -116
187 -182 279 -250 33 -24 83 -62 110 -84 28 -22 61 -48 75 -58 l25 -17 -35 6
c-147 28 -371 134 -489 233 -43 36 -61 62 -92 128 -36 79 -58 190 -41 208 4 3
20 -8 36 -27 16 -18 75 -81 132 -139z m-2753 37 c23 -12 62 -34 87 -48 25 -15
64 -30 88 -34 48 -8 57 -19 67 -85 10 -65 -9 -125 -53 -166 -34 -32 -41 -35
-87 -31 -67 6 -232 85 -268 128 -23 27 -27 41 -27 95 0 35 5 67 10 70 6 3 10
16 10 28 0 11 15 35 33 52 28 27 36 29 65 22 19 -5 52 -18 75 -31z m5504 -56
c4 -27 22 -42 41 -35 8 3 16 -4 19 -15 3 -11 9 -20 14 -20 5 0 9 -9 9 -20 0
-11 10 -30 21 -41 20 -20 24 -31 28 -80 0 -9 12 -28 26 -43 16 -18 20 -28 12
-30 -6 -3 -27 -9 -46 -15 -51 -16 -69 -14 -150 20 -60 25 -82 30 -120 25 -25
-4 -97 -9 -160 -12 -78 -4 -119 -11 -129 -20 -18 -18 -247 -20 -289 -2 -27 11
-25 12 37 18 69 7 163 30 224 55 101 42 214 100 266 135 92 62 174 110 184
107 5 -2 11 -14 13 -27z m-786 -255 c33 -14 33 -14 7 -15 -32 0 -58 9 -58 21
0 13 13 11 51 -6z m64 -63 c38 -9 101 -15 170 -14 71 0 133 -5 175 -16 57 -14
73 -23 126 -76 96 -96 134 -197 134 -353 0 -50 -6 -90 -19 -121 -11 -26 -30
-74 -43 -106 -24 -62 -137 -196 -164 -196 -8 0 -14 -4 -14 -8 0 -10 -46 -28
-145 -57 -44 -12 -116 -37 -160 -54 -44 -17 -103 -34 -131 -37 l-52 -6 5 28
c3 16 9 34 13 39 20 25 91 258 82 267 -17 17 -52 -1 -52 -27 0 -13 -5 -27 -10
-30 -7 -4 -10 6 -8 27 1 19 -1 38 -4 44 -4 5 -14 68 -23 138 -20 155 -62 304
-116 406 -21 42 -39 81 -39 87 0 7 26 30 57 53 55 39 61 41 108 35 27 -4 77
-14 110 -23z m1110 -25 c52 -22 66 -29 158 -87 78 -48 112 -110 109 -200 -3
-106 -21 -167 -62 -211 -29 -31 -43 -39 -72 -39 -74 0 -70 51 9 132 42 43 49
68 19 68 -14 0 -92 -80 -117 -120 -8 -14 -23 -44 -32 -67 -17 -44 -10 -57 27
-43 10 3 33 0 51 -8 l33 -15 -34 -66 c-21 -41 -47 -75 -67 -89 -42 -28 -123
-42 -245 -42 l-94 0 19 29 c72 114 78 129 100 239 23 118 22 186 -8 297 -13
46 -74 171 -89 180 -19 12 -10 35 18 46 81 32 194 30 277 -4z m-2829 -31 c41
-19 107 -39 199 -61 35 -8 135 -72 135 -86 0 -5 4 -8 9 -7 4 2 39 -25 77 -59
38 -34 78 -69 89 -77 34 -26 5 -18 -44 12 -60 37 -168 88 -248 118 -35 13 -86
35 -113 49 -59 30 -80 32 -56 6 19 -21 164 -95 281 -142 44 -18 104 -48 133
-66 48 -30 81 -36 67 -12 -24 39 110 -67 180 -142 136 -147 191 -221 178 -243
-19 -35 -137 -146 -154 -146 -10 0 -37 25 -63 59 -43 55 -350 357 -426 418
-125 100 -300 306 -300 354 0 10 -4 21 -10 24 -14 9 -12 25 3 25 6 0 35 -11
63 -24z m3044 -28 c0 -15 -21 -18 -35 -5 -12 13 -11 15 10 13 14 0 25 -4 25
-8z m-2435 -103 c66 -8 195 -15 287 -15 l168 0 -10 -26 c-16 -40 -12 -64 9
-64 10 0 22 8 26 18 6 16 7 16 16 -1 6 -9 7 -26 4 -37 -6 -18 -15 -20 -95 -20
-49 0 -110 -4 -137 -9 -26 -6 -75 -15 -108 -22 -33 -6 -64 -15 -70 -19 -5 -4
-23 -10 -40 -14 -24 -5 -36 0 -63 24 -18 17 -30 35 -26 42 4 7 3 8 -5 4 -7 -5
-23 3 -38 18 -14 14 -30 26 -34 26 -5 0 -9 6 -9 14 0 8 -8 17 -17 21 -10 3
-38 24 -63 46 l-45 41 65 -6 c36 -4 119 -13 185 -21z m-781 -51 c3 -8 2 -12
-4 -9 -6 3 -10 10 -10 16 0 14 7 11 14 -7z m40 -76 c16 -27 25 -48 22 -48 -6
0 -56 84 -56 95 0 11 3 7 34 -47z m-1679 -56 c-102 -60 -294 -122 -381 -122
-69 0 -49 9 44 20 80 9 153 32 282 91 73 32 101 38 55 11z m2900 -12 c6 -10
-17 -102 -40 -155 -15 -35 -123 -185 -133 -185 -4 0 -38 39 -77 87 -38 48 -94
113 -122 144 -54 57 -65 76 -38 65 8 -3 15 -2 15 3 0 5 17 11 38 15 20 3 66
12 102 20 76 16 246 20 255 6z m-1123 -105 c25 -44 53 -94 64 -112 66 -110
124 -204 200 -323 47 -74 88 -142 91 -150 5 -14 -86 119 -195 288 -62 96 -200
336 -214 372 -16 42 7 11 54 -75z m1238 -124 c0 -11 -5 -23 -11 -27 -6 -3 -8
-16 -6 -28 3 -11 2 -43 -3 -71 -9 -54 0 -75 31 -75 11 0 19 -4 19 -10 0 -5
-27 -10 -61 -12 l-61 -3 -2 -93 c-1 -56 3 -96 9 -100 5 -4 28 -11 50 -17 40
-10 40 -10 45 -65 5 -54 6 -55 45 -68 48 -16 53 -21 35 -32 -33 -21 -97 -3
-140 40 -72 72 -92 241 -50 422 22 94 100 203 100 139z m195 9 c3 -5 1 -10 -4
-10 -6 0 -11 5 -11 10 0 6 2 10 4 10 3 0 8 -4 11 -10z m30 -201 c10 -15 -1
-23 -20 -15 -9 3 -13 10 -10 16 8 13 22 13 30 -1z m-195 -99 c0 -5 -11 -10
-25 -10 -14 0 -25 5 -25 10 0 6 11 10 25 10 14 0 25 -4 25 -10z m95 -10 c-3
-5 -10 -10 -16 -10 -5 0 -9 5 -9 10 0 6 7 10 16 10 8 0 12 -4 9 -10z m992 -26
c-3 -3 -12 -4 -19 -1 -8 3 -5 6 6 6 11 1 17 -2 13 -5z m-280 -37 c-15 -12 -27
-28 -27 -35 0 -7 -7 -9 -17 -5 -12 4 -10 -1 7 -16 25 -22 25 -23 5 -37 -22
-16 -22 -17 -24 -69 -1 -28 -6 -37 -27 -45 -14 -6 -22 -14 -19 -20 6 -9 -41
-35 -57 -32 -5 1 -8 -3 -8 -8 0 -6 -10 -15 -22 -20 -13 -6 -30 -14 -38 -20 -8
-5 -37 -19 -65 -30 -27 -12 -64 -28 -82 -37 -17 -8 -37 -12 -43 -8 -7 4 -16 1
-21 -6 -7 -11 -9 -10 -9 3 0 12 -5 15 -16 11 -13 -5 -15 -1 -10 18 l6 24 -11
-22 c-7 -13 -16 -23 -21 -23 -8 0 -7 10 12 90 5 19 12 61 15 92 8 66 13 72 75
88 57 15 108 32 189 64 36 14 96 32 134 40 38 8 71 17 75 20 3 3 10 6 15 6 6
0 -2 -10 -16 -23z m-827 -7 c0 -5 -7 -7 -15 -4 -8 4 -15 8 -15 10 0 2 7 4 15
4 8 0 15 -4 15 -10z m108 -79 c23 -14 10 -46 -21 -49 -24 -3 -27 0 -27 27 0
32 19 41 48 22z m-708 -309 c20 -16 21 -19 6 -31 -9 -7 -16 -19 -16 -26 0 -25
-66 -35 -88 -13 -18 18 -15 36 13 63 29 30 55 32 85 7z m10 -92 c0 -5 -5 -10
-11 -10 -5 0 -7 5 -4 10 3 6 8 10 11 10 2 0 4 -4 4 -10z m125 -30 c21 -18 3
-45 -53 -81 -66 -42 -82 -39 -82 13 0 59 31 92 83 85 21 -3 44 -11 52 -17z"/>
<path d="M3383 3915 c-24 -7 -59 -22 -79 -34 -52 -31 -133 -101 -139 -121 -3
-10 -14 -28 -25 -40 -24 -28 -27 -53 -16 -121 5 -28 13 -40 36 -49 41 -17 67
-8 141 49 86 65 156 101 200 101 46 0 106 -42 149 -104 74 -108 149 -312 170
-461 6 -44 20 -107 30 -140 10 -33 21 -69 23 -80 3 -11 5 -2 6 19 0 22 8 68
17 103 18 73 13 109 -6 46 -7 -24 -17 -43 -22 -43 -4 0 -8 19 -9 43 -3 130
-20 259 -50 387 -55 231 -163 406 -275 444 -56 19 -94 19 -151 1z"/>
<path d="M4623 3490 c-80 -28 -226 -134 -346 -250 -101 -97 -130 -130 -241
-278 -38 -50 -64 -63 -58 -28 2 9 -2 16 -8 16 -11 0 -8 -65 3 -77 13 -13 53 9
75 40 28 43 94 111 202 210 178 164 377 248 500 211 39 -11 60 -27 100 -74 29
-32 59 -61 67 -64 21 -8 92 50 99 81 4 14 -1 49 -10 79 -19 61 -74 114 -146
139 -58 20 -172 18 -237 -5z"/>
<path d="M3427 3290 c-143 -36 -261 -180 -288 -349 -13 -87 -6 -149 26 -211
26 -51 80 -110 101 -110 21 0 17 9 -16 36 -16 14 -44 54 -61 90 -30 61 -32 68
-27 156 6 117 37 189 117 269 99 99 214 123 338 69 28 -12 65 -37 84 -56 18
-19 40 -34 48 -34 24 0 -65 85 -121 115 -55 30 -138 40 -201 25z"/>
<path d="M4330 3081 c-61 -20 -142 -65 -157 -87 -20 -32 -12 -39 18 -16 13 10
47 29 74 42 68 31 219 42 282 20 62 -21 127 -76 160 -135 26 -46 28 -58 28
-155 0 -102 -1 -107 -38 -178 -58 -112 -145 -186 -236 -201 -38 -7 -55 -31
-22 -31 76 0 194 76 254 163 58 83 79 156 75 257 -5 131 -58 223 -170 298 -37
24 -51 27 -142 29 -56 1 -112 -1 -126 -6z"/>
<path d="M3990 3056 c-5 -15 -13 -39 -16 -54 -10 -40 11 -15 26 31 14 44 6 63
-10 23z"/>
<path d="M2798 2993 c-9 -10 -19 -29 -22 -43 -7 -24 -6 -24 9 3 18 31 32 34
51 10 11 -16 12 -14 6 11 -10 36 -24 42 -44 19z"/>
<path d="M3674 2858 c-41 -19 -59 -102 -29 -132 53 -53 125 -10 125 74 0 33
-31 70 -57 69 -10 0 -28 -5 -39 -11z"/>
<path d="M4085 2745 c-19 -18 -25 -35 -25 -67 0 -66 22 -84 83 -67 78 21 74
159 -4 159 -18 0 -39 -9 -54 -25z"/>
<path d="M2988 2599 c-14 -5 -29 -17 -32 -25 -5 -12 -2 -12 16 -3 22 12 114 5
133 -10 15 -12 80 -20 104 -14 12 3 21 11 21 17 0 26 -193 54 -242 35z"/>
<path d="M5265 2571 c-95 -46 -206 -196 -190 -258 6 -26 35 -21 35 7 0 25 24
42 57 38 26 -3 28 -7 31 -50 2 -32 -4 -62 -18 -93 -20 -45 -23 -47 -53 -40
-86 19 -127 4 -127 -46 0 -24 5 -30 36 -38 128 -35 277 210 176 289 -13 11
-33 20 -43 20 -23 0 -24 9 -3 38 33 47 94 53 94 9 0 -12 5 -29 10 -37 9 -13
12 -12 25 4 23 30 18 53 -15 78 -37 27 -37 31 -2 48 68 32 111 18 109 -35 -1
-40 8 -54 25 -37 14 14 21 50 14 78 -11 44 -93 57 -161 25z m-172 -436 c1 -5
-10 -11 -25 -13 -16 -2 -28 1 -28 7 0 20 49 26 53 6z"/>
<path d="M3368 2538 c6 -6 26 -13 43 -15 41 -4 35 2 -15 16 -29 8 -36 7 -28
-1z"/>
<path d="M3693 2437 c-50 -34 -37 -52 16 -23 26 14 53 11 88 -11 30 -20 39 1
11 26 -12 12 -30 21 -39 21 -10 0 -23 2 -31 4 -7 3 -28 -5 -45 -17z"/>
<path d="M4566 2310 c-40 -5 -64 -14 -73 -26 -17 -24 -4 -28 44 -15 38 11 100
14 76 4 -7 -2 -13 -11 -13 -19 0 -10 13 -14 45 -14 34 0 43 -3 39 -14 -4 -11
9 -16 60 -21 82 -9 102 -2 56 19 -49 24 -111 62 -119 73 -10 16 -52 20 -115
13z"/>
<path d="M3600 2280 c-145 -20 -249 -136 -258 -291 -4 -76 -4 -76 27 -98 134
-95 630 -175 794 -127 107 31 144 93 116 193 -27 99 -186 222 -369 285 -50 17
-221 50 -245 47 -5 -1 -35 -5 -65 -9z m284 -85 c16 -12 17 -15 4 -15 -8 0 -21
7 -28 15 -16 19 -1 19 24 0z m89 -10 c35 -14 54 -31 22 -19 -10 4 -15 0 -15
-12 -1 -18 -1 -18 -15 0 -16 21 -45 31 -45 16 0 -5 -48 -8 -107 -6 -104 2
-161 -8 -185 -32 -7 -7 -17 -12 -24 -12 -7 0 -10 -8 -7 -20 3 -11 0 -20 -6
-20 -6 0 -11 5 -11 10 0 6 -5 10 -11 10 -5 0 -7 -4 -4 -10 3 -6 -4 -10 -16
-10 -12 0 -31 -7 -41 -17 -10 -9 -18 -11 -18 -5 0 13 28 42 41 42 5 0 19 9 31
20 12 11 28 20 37 20 8 0 23 8 33 17 14 12 36 17 73 17 37 -1 56 3 59 12 6 17
56 19 56 3 0 -6 7 -9 15 -5 8 3 15 1 15 -4 0 -6 14 -10 30 -10 31 0 42 23 18
34 -27 13 40 -4 75 -19z m97 -55 c0 -5 -4 -10 -9 -10 -6 0 -13 5 -16 10 -3 6
1 10 9 10 9 0 16 -4 16 -10z m60 -32 c0 -6 -6 -5 -15 2 -8 7 -15 14 -15 16 0
2 7 1 15 -2 8 -4 15 -11 15 -16z m-27 -9 c5 -3 2 -9 -5 -12 -9 -3 -14 3 -15
15 -1 11 1 16 5 12 4 -5 11 -12 15 -15z m45 -17 c-11 -2 -18 -13 -18 -27 0
-13 -5 -27 -12 -31 -8 -5 -9 2 -4 26 7 36 23 53 41 42 6 -4 3 -8 -7 -10z m27
-32 c-4 -11 -2 -20 4 -20 6 0 11 5 11 11 0 8 5 8 15 -1 16 -13 21 -40 8 -40
-21 1 -53 37 -47 53 9 24 17 21 9 -3z m-705 -6 c0 -8 -5 -12 -10 -9 -6 4 -8
11 -5 16 9 14 15 11 15 -7z m-22 -77 c-3 -50 -2 -52 27 -57 30 -6 30 -6 5 -13
-36 -10 -40 -9 -40 8 0 8 -5 15 -11 15 -5 0 -8 4 -5 8 3 5 6 29 7 55 2 25 7
43 11 40 5 -3 8 -28 6 -56z m312 53 c0 -5 -7 -10 -16 -10 -8 0 -12 5 -9 10 3
6 10 10 16 10 5 0 9 -4 9 -10z m-367 -80 c3 -11 1 -18 -4 -14 -5 3 -9 12 -9
20 0 20 7 17 13 -6z m194 -60 c-1 -16 -3 -30 -3 -30 -1 0 -15 7 -30 16 -28 15
-28 15 -4 12 19 -2 24 1 22 15 -2 9 2 17 7 17 6 0 9 -13 8 -30z m88 -30 c-4
-6 8 -10 29 -10 19 0 38 -5 42 -11 5 -9 -7 -10 -46 -5 -66 9 -83 18 -50 27 14
4 26 7 28 8 2 1 0 -3 -3 -9z m552 1 c-10 -4 -18 -11 -17 -16 1 -5 -18 -17 -42
-26 -49 -20 -232 -27 -243 -9 -4 6 -16 8 -27 4 -33 -10 -132 6 -119 19 8 8 33
8 94 -1 99 -14 263 -16 272 -2 3 5 11 7 18 4 7 -2 22 4 32 16 10 11 25 20 34
19 13 0 12 -2 -2 -8z m-322 -11 c13 -6 15 -9 5 -9 -8 0 -22 4 -30 9 -18 12 -2
12 25 0z m92 4 c-3 -3 -12 -4 -19 -1 -8 3 -5 6 6 6 11 1 17 -2 13 -5z m129 -9
c-8 -8 -20 -15 -27 -15 -7 0 -4 6 7 15 25 19 40 19 20 0z"/>
<path d="M3828 1803 c7 -3 16 -2 19 1 4 3 -2 6 -13 5 -11 0 -14 -3 -6 -6z"/>
<path d="M1922 3760 c-12 -32 -11 -34 4 -19 9 9 14 25 12 35 -3 14 -7 10 -16
-16z"/>
<path d="M2055 2657 c0 -51 -3 -132 -7 -182 -5 -66 -4 -82 3 -60 14 39 24 321
13 328 -5 3 -9 -36 -9 -86z"/>
<path d="M1840 2730 c0 -5 5 -10 10 -10 6 0 10 5 10 10 0 6 -4 10 -10 10 -5 0
-10 -4 -10 -10z"/>
<path d="M1830 2660 c0 -5 5 -10 10 -10 6 0 10 5 10 10 0 6 -4 10 -10 10 -5 0
-10 -4 -10 -10z"/>
<path d="M1825 2590 c-8 -13 5 -13 25 0 13 8 13 10 -2 10 -9 0 -20 -4 -23 -10z"/>
<path d="M2025 2328 c-4 -24 -13 -61 -20 -83 -27 -87 -48 -160 -48 -165 1 -3
-8 -22 -19 -43 -11 -22 -17 -41 -14 -44 7 -7 39 66 66 150 24 73 54 216 47
223 -3 3 -8 -14 -12 -38z"/>
<path d="M2022 2145 c-13 -38 -29 -83 -36 -100 -8 -16 -17 -43 -21 -60 -6 -30
-6 -30 13 5 28 50 74 189 69 208 -2 10 -13 -14 -25 -53z"/>
<path d="M2285 1919 c-4 -6 -5 -12 -2 -15 2 -3 7 2 10 11 7 17 1 20 -8 4z"/>
<path d="M5168 1883 c6 -2 18 -2 25 0 6 3 1 5 -13 5 -14 0 -19 -2 -12 -5z"/>
<path d="M398 2203 c7 -3 16 -2 19 1 4 3 -2 6 -13 5 -11 0 -14 -3 -6 -6z"/>
<path d="M6351 1744 c0 -11 3 -14 6 -6 3 7 2 16 -1 19 -3 4 -6 -2 -5 -13z"/>
</g>
</svg>
